HIERARCHY
ROOT hip
{
	OFFSET 0.000000 0.000000 0.000000 
	CHANNELS 6 Xposition Yposition Zposition Xrotation Zrotation Yrotation
	JOINT abdomen
	{
		OFFSET 0.000000 3.402643 0.000000 
		CHANNELS 3 Xrotation Zrotation Yrotation
		JOINT chest
		{
			OFFSET 0.000000 8.438565 -0.680529 
			CHANNELS 3 Xrotation Zrotation Yrotation
			JOINT neck
			{
				OFFSET 0.000000 10.207942 -0.272212 
				CHANNELS 3 Xrotation Zrotation Yrotation
				JOINT head
				{
					OFFSET 0.000000 3.130431 0.000000 
					CHANNELS 3 Xrotation Zrotation Yrotation
					End Site
					{
						OFFSET 0.000000 3.130435 0.000000 
					}
				}
			}
			JOINT lCollar
			{
				OFFSET 3.470700 6.669187 -0.816635 
				CHANNELS 3 Yrotation Zrotation Xrotation
				JOINT lShldr
				{
					OFFSET 3.198488 0.000000 0.000000 
					CHANNELS 3 Zrotation Yrotation Xrotation
					JOINT lForeArm
					{
						OFFSET 10.139888 0.000000 0.000000 
						CHANNELS 3 Yrotation Zrotation Xrotation
						JOINT lHand
						{
							OFFSET 8.370511 0.000000 0.000000 
							CHANNELS 3 Zrotation Yrotation Xrotation
							End Site
							{
								OFFSET 4.083176 0.000000 0.000000 
							}
						}
					}
				}
			}
			JOINT rCollar
			{
				OFFSET -3.470700 6.669187 -0.816635 
				CHANNELS 3 Yrotation Zrotation Xrotation
				JOINT rShldr
				{
					OFFSET -3.198488 0.000000 0.000000 
					CHANNELS 3 Zrotation Yrotation Xrotation
					JOINT rForeArm
					{
						OFFSET -10.139888 0.000000 0.000000 
						CHANNELS 3 Yrotation Zrotation Xrotation
						JOINT rHand
						{
							OFFSET -8.370511 0.000000 0.000000 
							CHANNELS 3 Zrotation Yrotation Xrotation
							End Site
							{
								OFFSET -4.083176 0.000000 0.000000 
							}
						}
					}
				}
			}
		}
	}
	JOINT lThigh
	{
		OFFSET 5.308129 -1.633274 1.361059 
		CHANNELS 3 Xrotation Zrotation Yrotation
		JOINT lShin
		{
			OFFSET -2.041588 -20.007561 0.000000 
			CHANNELS 3 Xrotation Zrotation Yrotation
			JOINT lFoot
			{
				OFFSET 0.000000 -19.190928 -1.224953 
				CHANNELS 3 Xrotation Yrotation Zrotation
				End Site
				{
					OFFSET 0.000000 -2.449906 4.627600 
				}
			}
		}
	}
	JOINT rThigh
	{
		OFFSET -5.308129 -1.633274 1.361059 
		CHANNELS 3 Xrotation Zrotation Yrotation
		JOINT rShin
		{
			OFFSET 2.041588 -20.007561 0.000000 
			CHANNELS 3 Xrotation Zrotation Yrotation
			JOINT rFoot
			{
				OFFSET 0.000000 -19.190928 -1.224953 
				CHANNELS 3 Xrotation Yrotation Zrotation
				End Site
				{
					OFFSET 0.000000 -2.449906 4.627600 
				}
			}
		}
	}
}
MOTION
Frames: 10
Frame Time: 0.033333
0.899056 50.420570 1.480437 0.163404 0.107183 3.818371 0.000000 0.000000 0.000000 -3.300718 -0.353391 -0.417874 5.381878 -0.498046 -0.117268 5.742938 0.400390 0.107487 0.775322 8.734325 -2.530193 -3.943696 0.816541 -7.738382 -0.005723 -4.498434 12.860998 0.169806 -3.844359 -3.402568 -0.665181 -9.365053 -2.464300 -3.437007 -9.804698 -14.957771 -0.006530 4.993079 18.923641 -5.943217 4.630083 -3.806495 8.837351 7.334013 9.068798 -2.480619 -3.405516 1.919383 -5.008243 0.282087 -5.231142 7.133092 -6.509481 -7.986038 0.253717 3.415697 -6.273080 -6.154282 -0.243416 4.540729 
0.909046 50.422199 1.478938 0.164014 0.116930 3.798841 0.000000 0.000000 0.000000 -3.330001 -0.355229 -0.437319 5.401000 -0.595703 -0.058692 5.782578 0.556639 0.136807 0.745541 8.657300 -2.549502 -3.910819 0.904051 -7.528123 0.000318 -4.548207 12.920938 0.370900 -3.763927 -3.415470 -0.685272 -9.451982 -2.504426 -3.298903 -9.745172 -15.051205 -0.007533 4.996231 19.041189 -5.890590 4.564436 -3.805574 8.835060 7.294068 9.033483 -2.468992 -3.391604 1.878509 -5.098526 0.259973 -5.050790 7.121671 -6.546484 -8.040602 0.322460 3.435269 -6.199719 -6.203927 -0.288555 4.532113 
0.922930 50.426361 1.479047 0.143854 0.107185 3.808605 0.000000 0.000000 0.000000 -3.320235 -0.365870 -0.446124 5.381798 -0.458983 -0.117262 5.694078 0.175780 0.234404 0.681647 8.757863 -2.549536 -4.065458 0.965589 -7.487188 -0.008829 -4.495555 13.213715 0.414645 -3.839584 -3.418938 -0.667429 -9.306173 -2.493209 -3.246818 -9.842111 -14.951702 -0.004643 4.997111 19.717274 -6.440724 4.911449 -3.850901 8.839059 7.290135 9.013714 -2.482434 -3.357186 1.878444 -5.001484 0.257278 -5.156717 7.176590 -6.562269 -8.021745 0.302385 3.464965 -6.202050 -6.194589 -0.213384 4.575842 
0.933726 50.430882 1.469356 0.173780 0.116930 3.798840 0.000000 0.000000 0.000000 -3.330013 -0.374674 -0.435484 5.391815 -0.537108 -0.127039 5.528249 0.332030 0.156304 0.730864 8.765474 -2.549518 -4.170388 0.928012 -7.546051 -0.007102 -4.438562 13.408426 0.359242 -3.568961 -3.414342 -0.643182 -9.199691 -2.491657 -3.305134 -9.831308 -14.788968 -0.006160 4.993843 19.628918 -6.369827 4.866508 -3.849568 8.793695 7.224255 8.954299 -2.482929 -3.327371 1.984717 -4.963898 0.283934 -5.112893 7.094648 -6.559143 -7.973088 0.302404 3.386195 -6.249810 -6.103622 -0.263414 4.584517 
0.949747 50.429745 1.467481 0.182935 0.107183 3.818371 0.000000 0.000000 0.000000 -3.398443 -0.428412 -0.381295 5.547853 -0.410155 -0.136785 5.371894 0.361327 0.127012 0.622082 8.965542 -2.610472 -4.360152 0.985337 -7.369033 -0.006471 -4.486057 13.272129 0.364045 -3.813249 -3.415594 -0.570663 -9.114658 -2.551087 -3.216885 -9.941467 -14.519571 0.000318 4.996579 19.305420 -5.971897 4.618441 -3.807895 8.805334 7.254262 9.017866 -2.499040 -3.392669 1.900083 -5.005754 0.260913 -5.059676 7.154397 -6.569712 -8.023208 0.195345 3.405459 -6.286139 -6.136823 -0.210235 4.640426 
0.970627 50.430630 1.468523 0.127042 0.146153 3.857459 0.000000 0.000000 0.000000 -3.447312 -0.465463 -0.358174 5.821551 -0.302732 -0.234423 5.185767 0.117187 0.107442 0.436617 9.081415 -2.640992 -4.638860 1.117844 -7.240016 -0.002440 -4.396049 13.338802 0.457231 -3.895743 -3.421786 -0.540823 -9.145186 -2.600852 -2.897404 -9.988338 -14.437359 -0.004823 4.993081 18.904184 -6.242504 4.394995 -3.818296 8.837027 7.178072 8.956805 -2.480988 -3.366900 1.956945 -4.988669 0.266530 -5.046433 7.180134 -6.625649 -8.070218 0.273144 3.416118 -6.232697 -6.158682 -0.217449 4.637568 
0.978887 50.432140 1.464019 0.212378 0.107174 3.896496 0.000000 0.000000 0.000000 -3.368915 -0.392136 -0.620210 5.335127 -0.605461 -0.293056 5.645164 0.371093 0.097717 0.734952 8.657412 -2.608902 -4.967323 1.080817 -8.480760 -0.003464 -3.784728 13.994384 0.649325 -3.991875 -3.435819 -0.828442 -9.230467 -2.541340 -2.230893 -9.445007 -15.762983 -0.001223 4.993370 19.217911 -6.969480 4.572128 -3.880133 8.735222 7.214703 8.943194 -2.471791 -3.364723 1.887834 -4.981153 0.265858 -5.099659 7.124410 -6.597955 -8.007486 0.234330 3.375689 -6.342198 -6.092190 -0.210715 4.682225 
0.986698 50.435169 1.467238 0.266907 0.048721 3.798835 0.000000 0.000000 0.000000 -3.407965 -0.372691 -0.622045 5.277116 -0.634755 -0.332119 5.781426 0.517578 0.019619 0.588148 8.409818 -2.617128 -5.526528 1.333604 -9.246829 -0.003221 -3.180820 13.985715 1.268390 -4.023216 -3.469935 -0.923661 -9.284683 -2.571772 -0.905680 -9.167967 -16.987181 0.001149 4.993083 18.835236 -8.657912 4.460233 -3.984246 8.715927 7.262762 9.009653 -2.459810 -3.411833 1.849338 -5.049792 0.253489 -5.021038 7.065809 -6.519957 -7.899003 0.185771 3.316012 -6.383162 -6.088797 -0.220445 4.731172 
1.014869 50.436787 1.449901 0.361915 0.155907 3.798867 0.000000 0.000000 0.000000 -3.388344 -0.493422 -0.757790 4.988828 -0.790971 -0.605546 6.238377 0.605466 -0.175771 0.258247 7.701274 -2.582621 -6.305563 1.788676 -10.353947 -0.006225 -2.287970 14.181005 2.289416 -4.039046 -3.544111 -1.001936 -8.890297 -2.559028 0.567385 -8.750802 -18.259165 -0.002285 4.991663 16.994167 -12.150934 4.670348 -4.245557 8.610715 7.118119 8.899681 -2.511502 -3.425432 2.049142 -4.962673 0.291822 -4.833439 6.919437 -6.666209 -7.958929 0.292552 3.308862 -6.200631 -6.024897 -0.258130 4.745703 
1.042565 50.425995 1.392161 0.377481 0.097447 3.750011 0.000000 0.000000 0.000000 -3.300229 -0.437312 -0.890604 4.819156 -1.035055 -0.801004 6.752310 0.849592 -0.371053 -0.262802 6.843703 -2.469716 -7.437315 2.415431 -10.683666 -0.000554 -1.691104 14.019553 4.125246 -4.414376 -3.665658 -0.590197 -7.501423 -2.422510 1.304475 -8.817473 -19.037291 -0.003639 4.997656 16.053707 -14.065080 5.497923 -4.465393 8.478648 7.114488 8.850794 -2.432838 -3.365957 2.227072 -4.972894 0.297833 -5.075190 6.841835 -6.656964 -7.928732 0.253609 3.318581 -6.232697 -6.041715 -0.245647 4.751377 
